<svg version="1.1" xmlns="http://www.w3.org/2000/svg" style="display: block;" viewBox="0 0 2048 2048" width="1000" height="1000" preserveAspectRatio="none">
<path transform="translate(0,0)" fill="rgb(251,250,245)" d="M 0 0 L 2048 0 L 2048 2048 L 0 2048 L 0 0 z"/>
<path transform="translate(0,0)" fill="rgb(15,146,229)" d="M 502.374 946.931 C 500.044 942.498 494.259 923.76 492.444 918.165 L 474.306 862.404 C 453.407 797.078 432.105 731.882 410.401 666.82 C 407.944 659.31 394.017 624.373 394.279 620.521 C 394.584 616.028 397.786 610.994 401.438 608.461 C 405.44 605.686 410.761 604.694 415.511 604.217 C 429.48 602.812 444.267 603.968 458.342 604.01 C 484.287 604.087 513.884 601.295 539.216 606.644 C 553.727 609.707 566.049 618.003 574.848 629.862 C 586.988 646.225 595.148 675.89 602.58 695.508 L 647.628 816.715 C 653.683 833.103 658.883 853.338 669.071 867.584 C 671.066 870.375 672.553 872.083 676.09 872.518 C 713.279 877.089 823.006 716.343 845.205 686.273 C 856.759 670.718 868.798 655.529 881.304 640.729 C 899.598 619.231 920.438 600.037 943.365 583.569 C 1007.39 537.803 1087.5 514.465 1165.38 527.957 C 1247.22 542.137 1331.55 594.422 1346.16 681.458 C 1349.7 702.585 1347.42 717.21 1343.83 737.911 C 1340.56 747.897 1337.73 754.923 1333.66 764.486 C 1318.44 684.108 1205.65 678.474 1163.88 739.658 C 1145.29 766.892 1142.84 796.753 1148.73 828.345 C 1162.43 901.765 1246.01 950.367 1317.28 935.289 C 1343 929.848 1367.55 916.535 1376.97 890.551 C 1384.87 869.206 1392.24 847.742 1399.83 826.311 L 1450.56 684.073 C 1455.07 671.43 1460.34 657.56 1464.76 645.055 C 1477.08 610.229 1505.69 603.121 1538.89 603.99 C 1570.52 604.583 1602.31 603.369 1633.9 604.174 C 1641.01 604.355 1652.44 609.422 1653.65 617.238 C 1655.22 627.428 1648.03 639.488 1644.85 649.38 C 1633.78 683.739 1622.44 718.011 1610.83 752.192 C 1593.24 804.987 1576.31 861.806 1557.73 913.787 L 1436.91 1280.46 L 1400.77 1389.75 C 1394.01 1410.27 1387.76 1431.24 1379.48 1451.2 C 1374.14 1464.8 1358.68 1477.29 1343.65 1477.79 C 1327.33 1478.21 1309.78 1478.52 1293.5 1477.87 C 1267.77 1476.86 1237.81 1481.1 1212.98 1475.43 C 1189.87 1470.16 1180.09 1432.57 1172.61 1412.75 L 1146.14 1342.36 L 1076.8 1159.92 L 1057.68 1108.84 C 1049.67 1087.29 1043.14 1059.41 1020.91 1049.49 L 1019.79 1050.33 C 1005.22 1061.32 998.252 1085.33 991.871 1102.22 L 969.476 1162.39 L 898.739 1349.9 L 875.394 1412.45 C 870.681 1425.07 866.339 1438.22 860.535 1450.38 C 857.439 1456.87 852.526 1466.03 846.639 1470.29 C 841.253 1474.19 833.872 1476.45 827.372 1477.48 C 809.855 1480.26 776.326 1477.97 757.481 1477.9 C 740.407 1477.83 721.839 1479.67 704.97 1477.57 C 692.799 1476.05 682.637 1470.96 675.28 1460.98 C 663.803 1445.41 637.811 1357.53 629.713 1333.13 L 558.137 1117.12 C 539.84 1060.65 519.925 1003.48 502.374 946.931 z"/>
<path transform="translate(0,0)" fill="rgb(0,115,203)" d="M 558.137 1117.12 C 578.151 1122.76 586.317 1128.71 610.433 1133.24 C 724.441 1154.69 800.956 1098.41 882.708 1028.97 C 918.637 995.609 949.501 971.24 997.056 955.719 C 1075.96 929.968 1133.21 956.087 1201.14 993.752 C 1296.87 1046.83 1412.78 1026.67 1497.03 961.081 C 1504.84 954.996 1552.56 913.622 1556 912.525 L 1557.73 913.787 L 1436.91 1280.46 L 1400.77 1389.75 C 1394.01 1410.27 1387.76 1431.24 1379.48 1451.2 C 1374.14 1464.8 1358.68 1477.29 1343.65 1477.79 C 1327.33 1478.21 1309.78 1478.52 1293.5 1477.87 C 1267.77 1476.86 1237.81 1481.1 1212.98 1475.43 C 1189.87 1470.16 1180.09 1432.57 1172.61 1412.75 L 1146.14 1342.36 L 1076.8 1159.92 L 1057.68 1108.84 C 1049.67 1087.29 1043.14 1059.41 1020.91 1049.49 L 1019.79 1050.33 C 1005.22 1061.32 998.252 1085.33 991.871 1102.22 L 969.476 1162.39 L 898.739 1349.9 L 875.394 1412.45 C 870.681 1425.07 866.339 1438.22 860.535 1450.38 C 857.439 1456.87 852.526 1466.03 846.639 1470.29 C 841.253 1474.19 833.872 1476.45 827.372 1477.48 C 809.855 1480.26 776.326 1477.97 757.481 1477.9 C 740.407 1477.83 721.839 1479.67 704.97 1477.57 C 692.799 1476.05 682.637 1470.96 675.28 1460.98 C 663.803 1445.41 637.811 1357.53 629.713 1333.13 L 558.137 1117.12 z"/>
<path transform="translate(0,0)" fill="rgb(55,184,241)" d="M 502.374 946.931 C 500.044 942.498 494.259 923.76 492.444 918.165 L 474.306 862.404 C 453.407 797.078 432.105 731.882 410.401 666.82 C 407.944 659.31 394.017 624.373 394.279 620.521 C 394.584 616.028 397.786 610.994 401.438 608.461 C 405.44 605.686 410.761 604.694 415.511 604.217 C 429.48 602.812 444.267 603.968 458.342 604.01 C 484.287 604.087 513.884 601.295 539.216 606.644 C 553.727 609.707 566.049 618.003 574.848 629.862 C 586.988 646.225 595.148 675.89 602.58 695.508 L 647.628 816.715 C 653.683 833.103 658.883 853.338 669.071 867.584 C 671.066 870.375 672.553 872.083 676.09 872.518 C 713.279 877.089 823.006 716.343 845.205 686.273 C 856.759 670.718 868.798 655.529 881.304 640.729 C 899.598 619.231 920.438 600.037 943.365 583.569 C 1007.39 537.803 1087.5 514.465 1165.38 527.957 C 1247.22 542.137 1331.55 594.422 1346.16 681.458 C 1349.7 702.585 1347.42 717.21 1343.83 737.911 C 1337.71 727.279 1331.78 715.839 1324.86 705.847 C 1301.35 671.577 1266.28 646.932 1226.07 636.433 C 1176.38 622.934 1121.35 633.421 1077.34 658.987 C 1033.88 684.233 1000.51 725.276 972.342 766.111 C 906.396 861.727 855.783 947.521 735.112 978.643 C 682.446 992.52 627.077 992.461 574.441 978.473 C 557.149 974.043 540.676 968.233 525.056 959.543 C 521.634 957.639 504.28 947.119 502.374 946.931 z"/>
</svg>
